<svg width="135" height="26" viewBox="0 0 135 26" fill="none" xmlns="http://www.w3.org/2000/svg">
<path fill-rule="evenodd" clip-rule="evenodd" d="M3.5884 2.18393C2.3474 3.42493 1.5884 5.51693 1.5884 7.69893C1.5884 10.5609 2.1664 11.5649 4.7064 13.1099C6.4214 14.1519 9.3464 15.2909 11.2064 15.6399C13.6304 16.0949 14.5884 16.8089 14.5884 18.1619C14.5884 21.0799 11.0104 21.6059 6.64339 19.3299C2.88339 17.3699 2.7344 17.3649 1.0994 19.1719C-0.484598 20.9219 -0.445593 21.1159 1.79841 22.5859C6.44341 25.6289 10.2744 26.4429 14.0664 25.1909C18.0784 23.8669 19.5884 21.6919 19.5884 17.2349C19.5884 13.7279 15.8614 10.8329 9.90841 9.71592C7.39241 9.24392 6.5504 8.61292 6.7844 7.37692C7.1804 5.28892 11.6804 4.62792 14.6554 6.21992C16.4124 7.15992 17.1304 7.06593 18.4554 5.71693C19.9684 4.17693 19.9144 3.91192 17.7274 2.11892C14.4244 -0.589076 6.3244 -0.552074 3.5884 2.18393ZM28.5884 2.68393C28.5884 5.08893 28.8294 5.18393 34.9664 5.18393C42.0504 5.18393 44.8824 6.90293 42.9264 10.0179C42.1564 11.2429 40.1214 11.7619 35.2344 11.9799L28.5884 12.2749V18.7299V25.1839H31.5884C34.4214 25.1839 34.5884 24.9619 34.5884 21.1839V17.1839H38.6654C45.4784 17.1839 50.2794 10.7549 47.9674 4.72892C46.8874 1.91492 42.0024 0.183926 35.1384 0.183926C28.8184 0.183926 28.5884 0.271926 28.5884 2.68393ZM63.6534 4.43393C62.6274 6.77193 60.1684 12.1959 58.1884 16.4889C56.2084 20.7819 54.5884 24.4949 54.5884 24.7389C54.5884 24.9839 55.7454 25.1839 57.1604 25.1839C59.4084 25.1839 60.1844 24.1779 63.3304 17.1839C65.3084 12.7839 67.2294 9.18393 67.5974 9.18393C67.9664 9.18393 68.7804 10.3089 69.4064 11.6839C70.4544 13.9849 70.3474 14.1839 68.0674 14.1839C65.2914 14.1839 65.1474 14.4909 66.6234 17.2499C67.2124 18.3499 68.7094 19.1839 70.0984 19.1839C71.7964 19.1839 73.0084 20.0949 74.0884 22.1839C75.1944 24.3239 76.3684 25.1839 78.1814 25.1839C81.2904 25.1839 81.2444 24.9999 74.5354 10.6699C68.7964 -1.59108 66.7984 -2.73607 63.6534 4.43393ZM93.0064 1.15292C89.1024 2.73192 85.5884 8.01793 85.5884 12.3099C85.5884 21.1439 90.4364 25.1839 101.038 25.1839C107.358 25.1839 107.588 25.0959 107.588 22.6839C107.588 20.2809 107.343 20.1839 101.262 20.1839C95.9434 20.1839 94.5914 19.8159 92.7624 17.8699C89.8784 14.7989 89.9914 10.6909 93.0434 7.63893C95.1074 5.57393 96.4574 5.18393 101.543 5.18393C107.324 5.18393 107.588 5.07493 107.588 2.68393C107.588 0.276926 107.355 0.18593 101.338 0.24693C97.9014 0.28193 94.1514 0.68992 93.0064 1.15292ZM115.588 2.68393C115.588 5.17493 115.621 5.18393 125.088 5.18393C134.555 5.18393 134.588 5.17493 134.588 2.68393C134.588 0.192926 134.555 0.183926 125.088 0.183926C115.621 0.183926 115.588 0.192926 115.588 2.68393ZM115.588 17.6839V25.1839H125.088C134.555 25.1839 134.588 25.1749 134.588 22.6839C134.588 20.2549 134.388 20.1839 127.588 20.1839C120.788 20.1839 120.588 20.1129 120.588 17.6839C120.588 15.2549 120.788 15.1839 127.588 15.1839C134.388 15.1839 134.588 15.1129 134.588 12.6839C134.588 10.1929 134.555 10.1839 125.088 10.1839H115.588V17.6839Z" fill="url(#paint0_linear_19_1139)"/>
<defs>
<linearGradient id="paint0_linear_19_1139" x1="67.2942" y1="0" x2="67.2942" y2="25.7555" gradientUnits="userSpaceOnUse">
<stop stop-color="white"/>
<stop offset="0.781327" stop-color="white"/>
</linearGradient>
</defs>
</svg>
